<svg width="16" height="16" viewBox="0 0 16 16" fill="none" xmlns="http://www.w3.org/2000/svg">
<path fill-rule="evenodd" clip-rule="evenodd" d="M5.33334 1.33337C3.1242 1.33337 1.33334 3.12423 1.33334 5.33337V10.6667C1.33334 12.8758 3.1242 14.6667 5.33334 14.6667H7.96945V9.66837H6.8889V7.98337H7.96945V6.60504C7.96945 6.59993 7.96943 6.59423 7.96941 6.58796C7.9682 6.28557 7.96177 4.66671 10.2445 4.66671H11.8889V6.42115H10.6795C10.44 6.42115 10.1983 6.65282 10.1983 6.82448V7.97671C10.1983 7.97671 11.9411 7.97393 11.8867 7.97671C11.8328 7.98004 11.6795 9.66837 11.6795 9.66837H10.1895V14.6667H10.6667C12.8758 14.6667 14.6667 12.8758 14.6667 10.6667V5.33337C14.6667 3.12423 12.8758 1.33337 10.6667 1.33337H5.33334Z" fill="#BDBEC1"/>
</svg>
