<svg width="24" height="24" viewBox="0 0 24 24" fill="none" xmlns="http://www.w3.org/2000/svg">
<g clip-path="url(#clip0)">
<path d="M16.4688 11.1875L7.53125 11.1875C5.5 11.1875 3.875 9.5625 3.875 7.53125C3.875 5.5 5.5 3.875 7.53125 3.875C9.31875 3.875 10.7813 5.175 11.1063 6.88125L10.2938 6.06875C9.96875 5.74375 9.48125 5.74375 9.15625 6.06875C8.83125 6.39375 8.83125 6.88125 9.15625 7.20625L12 10.05L14.8438 7.20625C15.1688 6.88125 15.1688 6.39375 14.8438 6.06875C14.5188 5.74375 14.0313 5.74375 13.7063 6.06875L12.8125 7.04375C12.4875 4.3625 10.2938 2.25 7.53125 2.25C4.60625 2.25 2.25 4.60625 2.25 7.53125C2.25 10.4562 4.60625 12.8125 7.53125 12.8125L16.4688 12.8125C18.5 12.8125 20.125 14.4375 20.125 16.4688C20.125 18.5 18.5 20.125 16.4688 20.125C14.5188 20.125 12.8125 18.6625 12.8125 16.875C12.8125 15.575 12.8125 15.4125 12.8125 15.25C12.8125 14.7625 12.4875 14.4375 12 14.4375C11.5125 14.4375 11.1875 14.7625 11.1875 15.25V15.3313C11.1875 15.4125 11.1875 15.575 11.1875 16.875C11.1875 19.5562 13.625 21.75 16.4688 21.75C19.3938 21.75 21.75 19.3937 21.75 16.4688C21.75 13.5438 19.3938 11.1875 16.4688 11.1875Z" fill="white"/>
</g>
<defs>
<clipPath id="clip0">
<rect x="2.25" y="2.25" width="19.5" height="19.5" fill="white"/>
</clipPath>
</defs>
</svg>
