<svg width="24" height="24" viewBox="0 0 24 24" fill="none" xmlns="http://www.w3.org/2000/svg">
<g clip-path="url(#clip0)">
<path fill-rule="evenodd" clip-rule="evenodd" d="M3.16545 8.24482C3.68629 8.00732 4.26519 7.875 4.875 7.875C7.15318 7.875 9 9.72183 9 12C9 14.2782 7.15318 16.125 4.875 16.125C3.87778 16.125 2.96321 15.7711 2.25 15.1821L2.25 20.2031C2.25 20.8503 2.77467 21.375 3.42188 21.375L19.75 21.375C20.8546 21.375 21.75 20.4796 21.75 19.375L21.75 15.1821C21.0368 15.7711 20.1222 16.125 19.125 16.125C16.8468 16.125 15 14.2782 15 12C15 9.72183 16.8468 7.875 19.125 7.875C19.8578 7.875 20.5459 8.06607 21.1423 8.40109C21.7633 7.83162 23.0096 6.46528 22.1793 5.2953C21.2943 4.04809 19.7133 4.78052 18.9101 5.27814C17.2215 3.63618 14.9163 2.625 12.375 2.625H12C9.49584 2.625 7.21218 3.56905 5.48549 5.12067C5.00929 4.76983 2.89459 3.34624 1.81517 4.86739C0.754966 6.36145 3.08105 8.17574 3.16683 8.24187L3.16545 8.24482ZM21.2865 5.95621C21.6341 6.44611 20.9709 7.10364 20.5667 7.43728C20.306 6.97017 20.0064 6.52766 19.6725 6.11411C20.1059 5.82528 20.901 5.41295 21.2865 5.95621ZM4.00113 6.79851C3.98566 6.82067 3.97027 6.8429 3.95498 6.86519L3.70738 7.22283C3.70738 7.22283 2.22272 6.21221 2.70803 5.52829C3.25367 4.75935 4.61981 5.90487 4.61981 5.90487L4.00113 6.79851ZM4.875 13.875C5.91053 13.875 6.75 13.0355 6.75 12C6.75 11.7536 6.70248 11.5183 6.6161 11.3028C6.48063 11.4975 6.2552 11.625 6 11.625C5.58579 11.625 5.25 11.2892 5.25 10.875C5.25 10.6198 5.37746 10.3944 5.57219 10.2589C5.35667 10.1725 5.12139 10.125 4.875 10.125C3.83947 10.125 3 10.9645 3 12C3 13.0355 3.83947 13.875 4.875 13.875ZM8.25 12C8.25 13.864 6.73896 15.375 4.875 15.375C3.01104 15.375 1.5 13.864 1.5 12C1.5 10.136 3.01104 8.625 4.875 8.625C6.73896 8.625 8.25 10.136 8.25 12ZM11.0169 15.4396C11.3837 15.7458 11.9034 15.9459 12.1771 15.9459C12.5512 15.9459 12.9953 15.7282 13.2912 15.423C13.4113 15.4877 13.5259 15.5606 13.6308 15.6405C13.8626 15.8169 14.0198 16.0072 14.094 16.1879C14.1629 16.3557 14.1665 16.5263 14.0718 16.7146C13.9847 16.8877 13.775 16.9735 13.3394 16.9368C13.1396 16.9199 12.9349 16.8801 12.7406 16.8406L12.6912 16.8305L12.6911 16.8305L12.6911 16.8305C12.5312 16.7977 12.3436 16.7592 12.2078 16.7592C12.1164 16.7592 12.0207 16.7761 11.9413 16.7927C11.8659 16.8085 11.7821 16.8292 11.7007 16.8494L11.7006 16.8495L11.7005 16.8495L11.7005 16.8495L11.7005 16.8495L11.6761 16.8555C11.4902 16.9016 11.2992 16.9472 11.1099 16.9681C10.7253 17.0106 10.473 16.9419 10.322 16.6903C10.1937 16.4765 10.2483 16.1377 10.6331 15.7495C10.7465 15.6351 10.877 15.5304 11.0169 15.4396ZM13.6208 14.749C13.6222 14.6902 13.6162 14.6313 13.6016 14.5729C13.3737 13.6615 10.89 13.6234 10.6271 14.5731C10.6049 14.6535 10.6001 14.7327 10.6098 14.8099C10.4218 14.9318 10.2492 15.0714 10.1005 15.2215C9.64202 15.6839 9.27583 16.4043 9.67892 17.0762C9.93661 17.5057 10.3171 17.6703 10.6864 17.7152C10.6871 17.745 10.688 17.7763 10.6892 17.8097C10.6962 17.9993 10.7148 18.225 10.7884 18.4427C10.8648 18.6687 11.0013 18.8889 11.2384 19.0561C11.4705 19.2197 11.7691 19.3114 12.1352 19.3387C12.5337 19.3684 12.8645 19.2745 13.1207 19.0751C13.3699 18.8812 13.5118 18.6162 13.594 18.3673C13.6699 18.1375 13.7027 17.8949 13.7158 17.686C14.1017 17.6513 14.5153 17.5017 14.7418 17.0517C14.94 16.6576 14.9341 16.2594 14.7879 15.9031C14.6469 15.5597 14.3833 15.2707 14.0851 15.0437C13.9426 14.9352 13.786 14.8363 13.6208 14.749ZM12.5913 17.5756C12.7025 17.5982 12.8307 17.6239 12.967 17.6456C12.9573 17.8037 12.9339 17.9744 12.8819 18.132C12.8285 18.2937 12.754 18.4102 12.6602 18.4832C12.5734 18.5507 12.4347 18.609 12.191 18.5908C11.9151 18.5702 11.7598 18.506 11.6705 18.4431C11.5864 18.3838 11.5342 18.3069 11.4989 18.2026C11.4609 18.09 11.4449 17.9521 11.4387 17.7823C11.4376 17.7507 11.4368 17.7152 11.4361 17.6773C11.5909 17.6489 11.7352 17.6135 11.8563 17.5836L11.878 17.5782C11.9635 17.557 12.0337 17.5396 12.0949 17.5268C12.1648 17.5122 12.1976 17.5092 12.2078 17.5092C12.2611 17.5092 12.3735 17.5314 12.5913 17.5756ZM19.125 13.875C20.1605 13.875 21 13.0355 21 12C21 11.7536 20.9525 11.5183 20.8661 11.3028C20.7306 11.4975 20.5052 11.625 20.25 11.625C19.8358 11.625 19.5 11.2892 19.5 10.875C19.5 10.6198 19.6275 10.3944 19.8222 10.2589C19.6067 10.1725 19.3714 10.125 19.125 10.125C18.0895 10.125 17.25 10.9645 17.25 12C17.25 13.0355 18.0895 13.875 19.125 13.875ZM22.5 12C22.5 13.864 20.989 15.375 19.125 15.375C17.261 15.375 15.75 13.864 15.75 12C15.75 10.136 17.261 8.625 19.125 8.625C20.989 8.625 22.5 10.136 22.5 12Z" fill="white"/>
</g>
<defs>
<clipPath id="clip0">
<path d="M0 0L24 0L24 24L0 24L0 0Z" fill="white"/>
</clipPath>
</defs>
</svg>
