<svg width="24" height="25" viewBox="0 0 24 25" fill="none" xmlns="http://www.w3.org/2000/svg">
<path d="M12 3.04156C16.9705 3.04156 21 4.04892 21 5.29156C21 6.53421 16.9706 7.54156 12 7.54156C7.02942 7.54156 3 6.53421 3 5.29156C3 4.04892 7.02951 3.04156 12 3.04156Z" fill="white"/>
<path fill-rule="evenodd" clip-rule="evenodd" d="M3 6.49155V10.2916C3 11.5342 7.02942 12.5416 12 12.5416C16.9706 12.5416 21 11.5342 21 10.2916V6.49155C21 7.73419 16.9705 8.74155 12 8.74155C7.02951 8.74155 3 7.73419 3 6.49155ZM18.9 10.0306C18.9 10.4448 18.5641 10.7806 18.15 10.7806C17.7358 10.7806 17.4 10.4448 17.4 10.0306C17.4 9.61638 17.7358 9.28061 18.15 9.28061C18.5641 9.28061 18.9 9.61638 18.9 10.0306Z" fill="white"/>
<path fill-rule="evenodd" clip-rule="evenodd" d="M21 11.4916C21 12.7342 16.9705 13.7416 12 13.7416C7.02951 13.7416 3 12.7342 3 11.4916V15.2915C3 16.5342 7.02942 17.5415 12 17.5415C16.9706 17.5415 21 16.5342 21 15.2915V11.4916ZM18.9 15.0394C18.9 15.4536 18.5641 15.7894 18.15 15.7894C17.7358 15.7894 17.4 15.4536 17.4 15.0394C17.4 14.6252 17.7358 14.2894 18.15 14.2894C18.5641 14.2894 18.9 14.6252 18.9 15.0394Z" fill="white"/>
<path fill-rule="evenodd" clip-rule="evenodd" d="M21 16.4915C21 17.7342 16.9705 18.7415 12 18.7415C7.02951 18.7415 3 17.7342 3 16.4915V20.2916C3 21.5342 7.02951 22.5416 12 22.5416C16.9705 22.5416 21 21.5342 21 20.2916V16.4915ZM18.15 20.7434C18.5641 20.7434 18.9 20.4077 18.9 19.9934C18.9 19.5792 18.5641 19.2434 18.15 19.2434C17.7358 19.2434 17.4 19.5792 17.4 19.9934C17.4 20.4077 17.7358 20.7434 18.15 20.7434Z" fill="white"/>
</svg>
