<svg width="24" height="24" viewBox="0 0 24 24" fill="none" xmlns="http://www.w3.org/2000/svg">
<path d="M16.1134 4.08959C16.6388 3.9772 16.9694 3.47938 16.8517 2.97766C16.734 2.47594 16.2126 2.16033 15.6872 2.27271C14.5943 2.50645 13.2633 3.33829 12.684 5.10016C12.4619 5.06265 12.2334 5.04307 12 5.04307C11.7668 5.04307 11.5383 5.06262 11.3163 5.1001C10.7371 3.33827 9.40602 2.50645 8.31321 2.27271C7.78776 2.16033 7.26639 2.47594 7.14869 2.97766C7.03099 3.47938 7.36153 3.9772 7.88698 4.08959C8.36782 4.19243 9.19838 4.61358 9.52334 5.89022C8.65426 6.57318 8.10007 7.60823 8.10007 8.76687C8.10007 9.14052 8.15799 9.50218 8.26585 9.84358C7.83424 10.2594 7.45882 10.7442 7.14894 11.2788L5.90729 10.4591L5.1521 9.09645C4.90025 8.64201 4.31025 8.46856 3.83432 8.70904C3.35838 8.94952 3.17673 9.51287 3.42858 9.96731L4.29516 11.5309C4.36835 11.663 4.47375 11.7763 4.60246 11.8613L6.41333 13.0567C6.32503 13.3849 6.25802 13.7217 6.21371 14.0641L4.73807 13.8938C4.4999 13.8663 4.25948 13.9236 4.0628 14.0548L2.6668 14.9858C2.22534 15.2802 2.11741 15.8605 2.42573 16.282C2.73405 16.7036 3.34187 16.8066 3.78333 16.5122L4.87391 15.7849L6.20153 15.9382C6.25402 16.3899 6.34602 16.8324 6.4743 17.2589L5.14461 18.0417C5.02173 18.1141 4.91721 18.2116 4.8386 18.3272L3.52306 20.2618C3.22982 20.693 3.35821 21.2695 3.80982 21.5495C4.26144 21.8295 4.86527 21.7069 5.15851 21.2757L6.35465 19.5167L7.24909 18.9901C8.15306 20.4536 9.56085 21.5126 11.2685 21.7499V11.7924C11.2685 11.4067 11.5959 11.0941 11.9998 11.0941C12.4036 11.0941 12.731 11.4067 12.731 11.7924V21.75C14.4389 21.5128 15.8469 20.4537 16.7509 18.9901L17.6454 19.5167L18.8415 21.2757C19.1347 21.7069 19.7386 21.8295 20.1902 21.5495C20.6418 21.2695 20.7702 20.693 20.4769 20.2618L19.1614 18.3272C19.0828 18.2116 18.9783 18.1141 18.8554 18.0417L17.5257 17.2589C17.654 16.8324 17.746 16.3899 17.7985 15.9382L19.1261 15.7849L20.2167 16.5122C20.6581 16.8066 21.2659 16.7036 21.5743 16.282C21.8826 15.8605 21.7747 15.2802 21.3332 14.9858L19.9372 14.0548C19.7405 13.9236 19.5001 13.8663 19.2619 13.8938L17.7863 14.0641C17.742 13.7217 17.675 13.3849 17.5867 13.0567L19.3975 11.8613C19.5263 11.7763 19.6317 11.663 19.7048 11.5309L20.5714 9.96731C20.8233 9.51287 20.6416 8.94952 20.1657 8.70904C19.6898 8.46856 19.0998 8.64201 18.8479 9.09645L18.0927 10.4591L16.8511 11.2788C16.5412 10.7442 16.1658 10.2594 15.7342 9.84358C15.842 9.50218 15.8999 9.14052 15.8999 8.76687C15.8999 7.60837 15.3459 6.57342 14.477 5.89045C14.8019 4.61363 15.6325 4.19244 16.1134 4.08959Z" fill="white"/>
</svg>
