<svg width="24" height="24" viewBox="0 0 24 24" fill="none" xmlns="http://www.w3.org/2000/svg">
<path fill-rule="evenodd" clip-rule="evenodd" d="M16.4975 1.17848C16.4975 2.24723 16.107 3.24503 15.3288 4.16873C14.3897 5.26673 13.2536 5.90108 12.0218 5.80103C12.006 5.67278 11.9969 5.53793 11.9969 5.39603C11.9969 4.37003 12.4436 3.27218 13.2368 2.37428C13.6328 1.91978 14.1363 1.54178 14.7471 1.24028C15.3564 0.943277 15.9329 0.779027 16.475 0.750977C16.4909 0.893777 16.4975 1.03673 16.4975 1.17848V1.17848ZM20.6208 17.4044C20.2977 18.1511 19.9152 18.8382 19.4719 19.47C18.8677 20.3315 18.3732 20.9277 17.9919 21.2588C17.401 21.8022 16.7679 22.0805 16.0899 22.0964C15.6031 22.0964 15.0162 21.9579 14.3328 21.6768C13.6473 21.3972 13.0173 21.2588 12.4413 21.2588C11.8372 21.2588 11.1892 21.3972 10.4962 21.6768C9.80205 21.9579 9.243 22.1043 8.8155 22.1187C8.16525 22.1465 7.51725 21.8603 6.8703 21.2588C6.4575 20.8986 5.94105 20.2814 5.32245 19.4067C4.6587 18.4728 4.113 17.39 3.6855 16.1553C3.22755 14.8217 2.99805 13.5303 2.99805 12.2801C2.99805 10.848 3.3075 9.61275 3.92745 8.57775C4.4145 7.7463 5.06265 7.0905 5.8737 6.609C6.68475 6.1275 7.5612 5.88225 8.505 5.8665C9.0213 5.8665 9.69855 6.02625 10.5402 6.3402C11.3793 6.6552 11.9181 6.81495 12.1543 6.81495C12.331 6.81495 12.9297 6.6282 13.9444 6.25575C14.904 5.91045 15.7138 5.7675 16.3774 5.82375C18.1753 5.96895 19.5261 6.67755 20.4243 7.9545C18.8163 8.92875 18.021 10.2933 18.0367 12.0438C18.0513 13.4073 18.546 14.5421 19.5181 15.443C19.9587 15.8612 20.4507 16.1843 20.998 16.4138C20.8794 16.758 20.7541 17.0879 20.6208 17.4044V17.4044Z" fill="white"/>
</svg>
