<svg width="24" height="24" viewBox="0 0 24 24" fill="none" xmlns="http://www.w3.org/2000/svg">
<path fill-rule="evenodd" clip-rule="evenodd" d="M12.375 6.44848C10.7191 7.6447 10.8088 9.62012 11.7012 11.2522C11.8003 11.2507 11.8999 11.25 12 11.25C12.0656 11.25 12.1309 11.2503 12.1961 11.2509C12.0312 11.2526 11.8682 11.2567 11.7072 11.2631C12.2158 12.1886 12.9823 13.0027 13.8344 13.5C12.2471 13.3308 10.9979 12.4694 10.1672 11.3999C8.15807 11.686 6.75 12.3507 6.75 13.125C6.75 14.1605 9.2684 15 12.375 15C15.4816 15 18 14.1605 18 13.125C18 12.5323 17.1751 12.0039 15.8871 11.6603C17.6189 12.0676 18.75 12.7398 18.75 13.5C18.75 14.3293 18.6004 15.1237 18.3268 15.8576C17.745 16.1566 16.9515 16.4656 15.9275 16.6601C14.2157 16.9852 12.5342 17.0191 11.4914 17.0401H11.4913C10.9928 17.0502 10.6402 17.0573 10.5 17.0919C10.5669 17.524 12.549 18.1102 15.2156 17.9514C15.9843 17.9056 16.7017 17.7855 17.3335 17.6377C16.0986 19.2272 14.1687 20.25 12 20.25C8.27208 20.25 5.25 17.2279 5.25 13.5C5.25 12.4748 7.3069 11.6098 10.1201 11.3384C9.12395 10.0212 8.756 8.40679 9.16321 7.38092C9.87917 5.57721 11.3421 4.70376 12.6044 3.95012C14.2071 2.99323 15.4863 2.22948 14.5024 0C14.5024 0 17.7984 2.53059 12.375 6.44848ZM19.5 12.1807C23.2485 9.16632 25.5257 14.3146 19.7071 15.75C22.5908 13.5 22.1133 11.919 19.5 12.1807ZM5.4701 17.6899C3.05096 18.0976 1.5 18.8044 1.5 19.875C1.5 21.739 6.20101 24 12 24C17.799 24 22.5 21.739 22.5 19.875C22.5 18.8044 20.949 18.0976 18.5299 17.6899C19.5028 18.1677 20.0769 18.7563 20.0769 19.3929C20.0769 20.9905 16.4608 22.2857 12 22.2857C7.53924 22.2857 3.92308 20.9905 3.92308 19.3929C3.92308 18.7563 4.49719 18.1677 5.4701 17.6899ZM14.8701 9.47413C15.5158 10.3779 16.3494 11.9332 14.4492 13.1582C15.0123 11.7895 14.3568 11.283 13.7035 10.7783C13.2577 10.4339 12.813 10.0903 12.757 9.47413C12.5831 7.5608 15.6835 6 18.3954 6C18.2795 6.05635 18.1525 6.1168 18.0173 6.18111C16.485 6.91017 13.9126 8.13401 14.8701 9.47413Z" fill="white"/>
</svg>
