<svg width="24" height="24" viewBox="0 0 24 24" fill="none" xmlns="http://www.w3.org/2000/svg">
<path d="M2.25 16C2.25 15.4477 2.69772 15 3.25 15H5C5.55229 15 6 15.4477 6 16L6 21H2.25L2.25 16Z" fill="white"/>
<path d="M7.5 12.25C7.5 11.6977 7.94772 11.25 8.5 11.25H10.25C10.8023 11.25 11.25 11.6977 11.25 12.25L11.25 21H7.5L7.5 12.25Z" fill="white"/>
<path d="M12.75 14.5C12.75 13.9477 13.1977 13.5 13.75 13.5H15.5C16.0523 13.5 16.5 13.9477 16.5 14.5V21H12.75L12.75 14.5Z" fill="white"/>
<path d="M18 10C18 9.44772 18.4477 9 19 9H20.75C21.3023 9 21.75 9.44772 21.75 10V21H18V10Z" fill="white"/>
<path fill-rule="evenodd" clip-rule="evenodd" d="M19.875 6C20.9105 6 21.75 5.16053 21.75 4.125C21.75 3.08947 20.9105 2.25 19.875 2.25C18.8395 2.25 18 3.08947 18 4.125C18 4.31612 18.0286 4.50056 18.0817 4.67427L15.442 6.93689C15.1951 6.81715 14.9179 6.75 14.625 6.75C14.1678 6.75 13.7487 6.91367 13.4233 7.18562L11.2282 6.08804C11.0901 5.18872 10.313 4.5 9.375 4.5C8.33947 4.5 7.5 5.33947 7.5 6.375C7.5 6.42221 7.50175 6.46901 7.50517 6.51534L5.01321 8.47331C4.74884 8.33085 4.44636 8.25 4.125 8.25C3.08947 8.25 2.25 9.08947 2.25 10.125C2.25 11.1605 3.08947 12 4.125 12C5.16053 12 6 11.1605 6 10.125C6 9.96187 5.97917 9.80361 5.94002 9.65272L8.22587 7.8567C8.54327 8.10322 8.94199 8.25 9.375 8.25C9.95939 8.25 10.4813 7.98266 10.8252 7.5636L12.7525 8.52725C12.7508 8.55963 12.75 8.59221 12.75 8.625C12.75 9.66053 13.5895 10.5 14.625 10.5C15.6605 10.5 16.5 9.66053 16.5 8.625C16.5 8.43388 16.4714 8.24944 16.4183 8.07573L19.058 5.81311C19.3049 5.93285 19.5821 6 19.875 6Z" fill="white"/>
</svg>
