<svg width="24" height="24" viewBox="0 0 24 24" fill="none" xmlns="http://www.w3.org/2000/svg">
<path fill-rule="evenodd" clip-rule="evenodd" d="M20.7326 17.5926L14.5421 11.4022L19.0502 9.45733C19.3999 9.30642 19.6193 8.95419 19.6004 8.57372C19.5814 8.19325 19.3284 7.86447 18.9654 7.7488L4.19032 3.04302C3.86488 2.93954 3.50894 3.02598 3.26757 3.26747C3.02608 3.5089 2.93946 3.86484 3.04307 4.19022L7.74891 18.9654C7.86445 19.3284 8.19336 19.5815 8.57383 19.6005C8.9543 19.6194 9.30646 19.4 9.45737 19.0502L11.4023 14.5422L17.5927 20.7326C17.7639 20.9038 17.9961 21.0001 18.2382 21.0001C18.4804 21.0001 18.7128 20.9039 18.8838 20.7326L20.7324 18.8839C21.0892 18.5273 21.0892 17.9492 20.7326 17.5926V17.5926Z" fill="white"/>
</svg>
