<svg width="24" height="24" viewBox="0 0 24 24" fill="none" xmlns="http://www.w3.org/2000/svg">
<path fill-rule="evenodd" clip-rule="evenodd" d="M5.25 2.25L18.75 2.25C20.4069 2.25 21.75 3.59315 21.75 5.25L21.75 18.75C21.75 20.4069 20.4069 21.75 18.75 21.75L5.25 21.75C3.59315 21.75 2.25 20.4069 2.25 18.75L2.25 5.25C2.25 3.59315 3.59315 2.25 5.25 2.25ZM12.0002 14.0895C13.1541 14.0895 14.0895 13.1541 14.0895 12.0002C14.0895 10.8463 13.1541 9.91094 12.0002 9.91094C10.8463 9.91094 9.91094 10.8463 9.91094 12.0002C9.91094 13.1541 10.8463 14.0895 12.0002 14.0895ZM7.12483 9.21457C8.27871 9.21457 9.21412 8.27917 9.21412 7.12529C9.21412 5.97141 8.27871 5.036 7.12483 5.036C5.97095 5.036 5.03555 5.97141 5.03555 7.12529C5.03555 8.27917 5.97095 9.21457 7.12483 9.21457ZM7.12483 18.9644C8.27871 18.9644 9.21412 18.029 9.21412 16.8752C9.21412 15.7213 8.27871 14.7859 7.12483 14.7859C5.97095 14.7859 5.03555 15.7213 5.03555 16.8752C5.03555 18.029 5.97095 18.9644 7.12483 18.9644ZM16.8747 18.9644C18.0286 18.9644 18.964 18.029 18.964 16.8752C18.964 15.7213 18.0286 14.7859 16.8747 14.7859C15.7208 14.7859 14.7854 15.7213 14.7854 16.8752C14.7854 18.029 15.7208 18.9644 16.8747 18.9644ZM16.8747 9.21457C18.0286 9.21457 18.964 8.27917 18.964 7.12529C18.964 5.97141 18.0286 5.036 16.8747 5.036C15.7208 5.036 14.7854 5.97141 14.7854 7.12529C14.7854 8.27917 15.7208 9.21457 16.8747 9.21457Z" fill="white"/>
</svg>
