<svg width="24" height="24" viewBox="0 0 24 24" fill="none" xmlns="http://www.w3.org/2000/svg">
<path fill-rule="evenodd" clip-rule="evenodd" d="M16.5 8.62436C16.5 10.0719 15.3225 11.2501 13.8743 11.2501H10.1258C7.85104 11.2501 6.00004 13.1011 6.00004 15.3759V16.5001V16.5009H4.80604C3.51754 16.5009 3.03754 15.6024 2.58979 14.2539C2.12704 12.8649 2.14654 11.5299 2.58979 9.74861C2.90854 8.46611 3.51604 7.50086 4.80604 7.50086H5.25004V7.50011L12 7.50011V6.00011H7.50004L7.50004 4.77461C7.50004 3.47561 7.84579 2.77061 9.75154 2.43386C10.398 2.31986 11.133 2.25386 11.9033 2.25011C12.6728 2.24711 13.4753 2.30561 14.2485 2.43386C15.4703 2.63786 16.5 3.55436 16.5 4.77461V5.99936V6.00011V7.50011V8.62436ZM9.00004 4.50011C9.00004 4.91411 9.33604 5.25011 9.75004 5.25011C10.164 5.25011 10.5 4.91411 10.5 4.50011C10.5 4.08611 10.164 3.75011 9.75004 3.75011C9.33604 3.75011 9.00004 4.08611 9.00004 4.50011ZM14.25 18.7501C14.664 18.7501 15 19.0861 15 19.5001C15 19.9141 14.664 20.2501 14.25 20.2501C13.836 20.2501 13.5 19.9141 13.5 19.5001C13.5 19.0861 13.836 18.7501 14.25 18.7501ZM19.194 7.50086C20.484 7.50086 21.0915 8.46611 21.4103 9.74861C21.8535 11.5299 21.873 12.8649 21.4103 14.2539C20.9625 15.6024 20.4825 16.5009 19.194 16.5009H18V16.5001H12V18.0001H16.5V19.2256C16.5 20.5246 16.1543 21.2296 14.2485 21.5656C13.602 21.6804 12.867 21.7464 12.0968 21.7494C11.3273 21.7531 10.5248 21.6946 9.75154 21.5656C8.52979 21.3624 7.50004 20.4459 7.50004 19.2256V18.0016V18.0001V16.5001V15.3759C7.50004 13.9276 8.67754 12.7501 10.1258 12.7501H13.8743C16.149 12.7501 18 10.8991 18 8.62436V7.50011H18.75V7.50086H19.194Z" fill="white"/>
</svg>
