<svg width="24" height="24" viewBox="0 0 24 24" fill="none" xmlns="http://www.w3.org/2000/svg">
<path fill-rule="evenodd" clip-rule="evenodd" d="M13.7979 5.9998L14.6979 5.9998V5.0998H13.7979V5.9998ZM9.29805 5.9998H10.198V5.0998H9.29805V5.9998ZM15.1753 3.444L16.3453 2.274C16.5253 2.094 16.5253 1.815 16.3453 1.635C16.1653 1.455 15.8863 1.455 15.7063 1.635L14.3743 2.967C13.6633 2.607 12.8533 2.4 11.9983 2.4C11.1343 2.4 10.3243 2.607 9.60431 2.967L8.26331 1.635C8.08331 1.455 7.80431 1.455 7.62431 1.635C7.44431 1.815 7.44431 2.094 7.62431 2.274L8.80331 3.453C7.47131 4.434 6.59831 6.009 6.59831 7.8L17.3983 7.8C17.3983 6.009 16.5253 4.425 15.1753 3.444V3.444ZM19.6478 8.70007C18.9008 8.70007 18.2978 9.30307 18.2978 10.0501V16.3501C18.2978 17.0971 18.9008 17.7001 19.6478 17.7001C20.3948 17.7001 20.9978 17.0971 20.9978 16.3501L20.9978 10.0501C20.9978 9.30307 20.3948 8.70007 19.6478 8.70007V8.70007ZM4.34805 8.70007C3.60105 8.70007 2.99805 9.30307 2.99805 10.0501L2.99805 16.3501C2.99805 17.0971 3.60105 17.7001 4.34805 17.7001C5.09505 17.7001 5.69805 17.0971 5.69805 16.3501L5.69805 10.0501C5.69805 9.30307 5.09505 8.70007 4.34805 8.70007V8.70007ZM6.59831 17.7001C6.59831 18.1951 7.00331 18.6001 7.49831 18.6001H8.39831L8.39831 21.7501C8.39831 22.4971 9.00131 23.1001 9.74831 23.1001C10.4953 23.1001 11.0983 22.4971 11.0983 21.7501V18.6001H12.8983V21.7501C12.8983 22.4971 13.5013 23.1001 14.2483 23.1001C14.9953 23.1001 15.5983 22.4971 15.5983 21.7501V18.6001H16.4983C16.9933 18.6001 17.3983 18.1951 17.3983 17.7001V8.70007H6.59831L6.59831 17.7001Z" fill="white"/>
</svg>
