<svg width="24" height="24" viewBox="0 0 24 24" fill="none" xmlns="http://www.w3.org/2000/svg">
<path fill-rule="evenodd" clip-rule="evenodd" d="M2.94141 2.22168H4.44141L4.44141 19.6939L21.6914 19.6939V21.1939L2.94141 21.1939L2.94141 2.22168Z" fill="white"/>
<path d="M19.3848 17.7773L24.0002 20.444L19.3848 23.1107V17.7773Z" fill="white"/>
<path d="M0.923828 4.44444L3.69306 0L6.46229 4.44444L0.923828 4.44444Z" fill="white"/>
<path fill-rule="evenodd" clip-rule="evenodd" d="M2.94141 23.9999L2.94141 20.4443H4.44141V23.9999H2.94141Z" fill="white"/>
<path fill-rule="evenodd" clip-rule="evenodd" d="M3.69231 21.1943H0L0 19.6943H3.69231V21.1943Z" fill="white"/>
<path d="M18.8092 16.0002C16.6548 16.0002 15.7114 13.8215 14.8779 11.8989C14.2372 10.4189 13.5745 8.8891 12.6495 8.8891C11.7274 8.8891 11.0665 10.4189 10.4268 11.898C9.596 13.8207 8.65262 16.0002 6.5 16.0002V14.2224C7.42215 14.2224 8.08308 12.6927 8.72277 11.2135C9.55446 9.29088 10.4969 7.11133 12.6495 7.11133C14.8049 7.11133 15.7483 9.29088 16.5819 11.2135C17.2234 12.6927 17.8852 14.2224 18.8092 14.2224C19.4231 14.2224 19.9566 13.6038 20.6517 12.0864C20.7837 11.8011 20.9102 11.5078 21.0376 11.2144L22.7416 11.8989C22.6086 12.2047 22.4766 12.5087 22.3409 12.8055C21.8296 13.9202 20.8769 16.0002 18.8092 16.0002Z" fill="white"/>
</svg>
