<svg width="16" height="16" viewBox="0 0 16 16" fill="none" xmlns="http://www.w3.org/2000/svg">
<path fill-rule="evenodd" clip-rule="evenodd" d="M5.25112 1.37337C5.96223 1.34078 6.18964 1.33337 8.00001 1.33337C9.81038 1.33337 10.0378 1.34078 10.7489 1.37337C11.4585 1.40597 11.943 1.51856 12.3667 1.683C12.8052 1.85337 13.177 2.08152 13.5474 2.45263C13.9185 2.823 14.1467 3.19486 14.317 3.63337C14.4815 4.05708 14.5941 4.54152 14.6267 5.25115C14.6593 5.96226 14.6667 6.18967 14.6667 8.00004C14.6667 9.81041 14.6593 10.0378 14.6267 10.7489C14.5941 11.4586 14.4815 11.943 14.317 12.3667C14.1467 12.8052 13.9185 13.1771 13.5474 13.5474C13.177 13.9186 12.8052 14.1467 12.3667 14.3171C11.943 14.4815 11.4585 14.5941 10.7489 14.6267C10.0378 14.6593 9.81038 14.6667 8.00001 14.6667C6.18964 14.6667 5.96223 14.6593 5.25112 14.6267C4.54149 14.5941 4.05705 14.4815 3.63334 14.3171C3.19483 14.1467 2.82297 13.9186 2.4526 13.5474C2.08149 13.1771 1.85334 12.8052 1.68297 12.3667C1.51853 11.943 1.40594 11.4586 1.37334 10.7489C1.34075 10.0378 1.33334 9.81041 1.33334 8.00004C1.33334 6.18967 1.34075 5.96226 1.37334 5.25115C1.40594 4.54152 1.51853 4.05708 1.68297 3.63337C1.85334 3.19486 2.08149 2.823 2.4526 2.45263C2.82297 2.08152 3.19483 1.85337 3.63334 1.683C4.05705 1.51856 4.54149 1.40597 5.25112 1.37337ZM10.6941 2.57337C9.99112 2.54152 9.78001 2.53486 8.00001 2.53486C6.22001 2.53486 6.0089 2.54152 5.30594 2.57337C4.65631 2.603 4.30297 2.71189 4.06816 2.803C3.75705 2.92374 3.53483 3.06819 3.30149 3.30152C3.06816 3.53486 2.92371 3.75708 2.80297 4.06819C2.71186 4.303 2.60297 4.65634 2.57334 5.30597C2.54149 6.00893 2.53482 6.22004 2.53482 8.00004C2.53482 9.78004 2.54149 9.99115 2.57334 10.6941C2.60297 11.3437 2.71186 11.6971 2.80297 11.9319C2.92371 12.243 3.06816 12.4652 3.30149 12.6986C3.53483 12.9319 3.75705 13.0763 4.06816 13.1971C4.30297 13.2882 4.65631 13.3971 5.30594 13.4267C6.0089 13.4586 6.22001 13.4652 8.00001 13.4652C9.78001 13.4652 9.99112 13.4586 10.6941 13.4267C11.3437 13.3971 11.697 13.2882 11.9319 13.1971C12.243 13.0763 12.4652 12.9319 12.6985 12.6986C12.9319 12.4652 13.0763 12.243 13.197 11.9319C13.2882 11.6971 13.397 11.3437 13.4267 10.6941C13.4585 9.99115 13.4652 9.78004 13.4652 8.00004C13.4652 6.22004 13.4585 6.00893 13.4267 5.30597C13.397 4.65634 13.2882 4.303 13.197 4.06819C13.0763 3.75708 12.9319 3.53486 12.6985 3.30152C12.4652 3.06819 12.243 2.92374 11.9319 2.803C11.697 2.71189 11.3437 2.603 10.6941 2.57337ZM4.57631 8.00004C4.57631 6.10967 6.10964 4.57634 8.00001 4.57634C9.89038 4.57634 11.4237 6.10967 11.4237 8.00004C11.4237 9.89041 9.89038 11.4237 8.00001 11.4237C6.10964 11.4237 4.57631 9.89041 4.57631 8.00004ZM5.77779 8.00004C5.77779 9.22745 6.7726 10.2223 8.00001 10.2223C9.22742 10.2223 10.2222 9.22745 10.2222 8.00004C10.2222 6.77263 9.22742 5.77782 8.00001 5.77782C6.7726 5.77782 5.77779 6.77263 5.77779 8.00004ZM12.3587 4.44137C12.3587 4.88286 12.0002 5.24137 11.5587 5.24137C11.1172 5.24137 10.7587 4.88286 10.7587 4.44137C10.7587 3.99989 11.1172 3.64137 11.5587 3.64137C12.0002 3.64137 12.3587 3.99989 12.3587 4.44137" fill="#BDBEC1"/>
</svg>
