<svg width="165" height="80" viewBox="0 0 165 80" fill="none" xmlns="http://www.w3.org/2000/svg">
<path d="M76.2622 34.8213C74.389 34.8213 72.8404 35.4457 71.6166 36.6945C70.4177 37.9184 69.7683 39.5169 69.7683 41.3901C69.7683 43.3383 70.4427 44.9118 71.7664 46.1356C73.0902 47.3595 74.8136 47.9589 76.9366 47.9589C78.5851 47.9589 80.2085 47.5343 81.6572 46.8849V44.3623C80.2585 45.1616 78.61 45.5862 76.9366 45.5862C74.8635 45.5862 72.8904 44.687 72.4658 42.2893H82.1817C82.2566 42.0645 82.3066 41.4151 82.3066 40.8156C82.3066 39.6168 82.0068 38.1182 80.758 36.7445C79.659 35.4957 78.0356 34.8213 76.2622 34.8213ZM76.1873 37.294C77.7858 37.294 79.4842 38.268 79.734 40.2162H72.4908C72.8654 38.2181 74.4889 37.294 76.1873 37.294Z" fill="#090A0E"/>
<path d="M118.812 34.9414C117.513 34.9414 115.965 35.4909 115.016 36.465V35.1912H112.418V47.6794H115.016V41.4103C115.016 38.4881 116.839 37.489 118.962 37.489C119.087 37.489 119.262 37.514 119.436 37.539V34.9914C119.212 34.9664 118.937 34.9414 118.812 34.9414Z" fill="#090A0E"/>
<path d="M90.1903 41.2612L94.8359 35.167H91.6889L87.1182 41.3112L91.9636 47.6552H95.0357L90.1403 41.2862L90.1903 41.2612Z" fill="#090A0E"/>
<path d="M87.0213 30.0967H84.4238V47.6552H87.0213V30.0967Z" fill="#090A0E"/>
<path d="M53.2851 39.0295V38.3551H45.1428V40.8278H50.5627V44.4744C49.3638 44.9489 48.0651 45.1987 46.7163 45.1987C44.8431 45.1987 43.2945 44.5743 42.0707 43.3754C40.9218 42.2015 40.3223 40.7529 40.3223 38.9046C40.3223 37.0813 40.8968 35.6327 42.0707 34.4338C43.2446 33.2599 45.0679 32.6105 47.3907 32.6105C49.214 32.6105 50.9623 33.0351 52.4609 33.8344V30.9871C50.8874 30.2877 49.189 29.9131 47.3907 29.9131C44.4435 29.9381 41.746 30.8622 40.1225 32.5106C38.4241 34.209 37.5 36.382 37.5 38.9046C37.5 41.4272 38.4241 43.6002 40.1225 45.3236C41.8209 47.022 44.0938 47.8961 46.6913 47.8961C49.0641 47.8961 51.312 47.2218 53.2602 46.0479V44.9239V39.0295H53.2851Z" fill="#090A0E"/>
<path d="M66.3168 36.6446C65.1929 35.4707 63.6194 34.8213 61.896 34.8213C60.0227 34.8213 58.4742 35.4457 57.2504 36.6945C56.0515 37.9184 55.4021 39.5169 55.4021 41.3901C55.4021 43.3383 56.0765 44.9118 57.4002 46.1356C57.7998 46.4853 58.2244 46.81 58.699 47.0598C59.798 47.6592 61.0967 47.9589 62.5953 47.9589C64.2438 47.9589 65.8672 47.5343 67.3159 46.8849V44.3623C66.9912 44.5371 66.6665 44.712 66.3418 44.8369C65.1929 45.3364 63.8941 45.5612 62.5953 45.5612C60.5223 45.5612 58.5491 44.662 58.1245 42.2643H66.3168H67.8154C67.8903 42.0395 67.9403 41.3901 67.9403 40.7907C67.9403 39.5918 67.6406 38.0932 66.3917 36.7195C66.3668 36.7195 66.3418 36.6945 66.3168 36.6446ZM65.3427 40.2162H58.0996C58.4992 38.2431 60.1227 37.294 61.7961 37.294C63.3946 37.294 65.093 38.268 65.3427 40.2162Z" fill="#090A0E"/>
<path d="M138.818 35.167H136.22V47.6552H138.818V35.167Z" fill="#090A0E"/>
<path d="M137.519 29.7217C137.044 29.7217 136.645 29.8715 136.345 30.1962C136.02 30.5208 135.871 30.9204 135.871 31.3948C135.871 31.8693 136.02 32.2689 136.345 32.5935C136.67 32.9182 137.044 33.068 137.519 33.068C137.993 33.068 138.393 32.9182 138.692 32.5935C139.017 32.2689 139.167 31.8693 139.167 31.3948C139.167 30.9204 139.017 30.5208 138.692 30.1962C138.393 29.8715 137.993 29.7217 137.519 29.7217Z" fill="#090A0E"/>
<path d="M164.471 44.1834C164.471 43.4091 164.271 42.8097 163.896 42.3102C163.122 41.2112 161.623 40.6617 159.975 40.2371C159.3 40.0623 158.551 39.8875 158.002 39.5877C157.552 39.313 157.327 39.0383 157.327 38.5387H157.277H157.327C157.327 37.6895 158.376 37.2899 159.65 37.2899C161.174 37.2899 162.622 37.6396 163.896 38.3389V35.7414C162.572 35.1669 161.124 34.8672 159.65 34.8672C158.326 34.8672 156.953 35.1669 156.054 35.8662C155.154 36.5656 154.78 37.4897 154.78 38.6636C154.78 41.0863 156.878 42.0105 159.276 42.6099C159.95 42.7847 160.699 42.9596 161.249 43.2593C161.698 43.534 161.923 43.8088 161.923 44.3083C161.923 45.1825 160.999 45.6071 159.475 45.6071C157.852 45.6071 156.328 45.3323 154.955 44.8328V47.2555C156.378 47.7301 157.902 48.0048 159.475 48.0048C160.899 48.0048 162.173 47.6551 163.147 46.9808C163.472 46.756 163.721 46.4813 163.921 46.2065C164.296 45.6321 164.471 44.9577 164.471 44.1834Z" fill="#090A0E"/>
<path d="M107.879 38.4632C109.028 37.5891 109.577 36.5151 109.577 35.0415C109.577 33.6678 109.028 32.4439 108.054 31.5198C107.08 30.5956 105.606 30.1211 104.207 30.1211H96.8145V47.6546H104.832C106.305 47.6546 107.754 47.18 108.778 46.2309C109.777 45.3068 110.302 44.058 110.302 42.6343C110.302 40.886 109.428 39.2875 107.879 38.4632ZM99.4869 32.5188H104.482C105.881 32.5188 106.93 33.6178 106.93 35.0165C106.93 36.4401 105.856 37.5141 104.482 37.5141H99.4869V32.5188ZM104.957 45.2818H99.4869V39.8869H104.957C106.405 39.8869 107.554 41.0608 107.554 42.5844C107.554 44.0829 106.405 45.2818 104.957 45.2818Z" fill="#090A0E"/>
<path d="M147.332 37.2395C148.53 37.2395 149.305 37.6641 149.779 38.3135C150.254 38.9629 150.354 39.7871 150.354 40.4615V47.6547H152.951V40.3616C152.951 38.838 152.577 37.5393 151.702 36.5402C151.677 36.5152 151.677 36.5152 151.652 36.4902C150.778 35.5162 149.604 34.8418 148.006 34.8418C146.482 34.8418 145.234 35.3913 144.334 36.1156V35.1665H141.737V47.6547H144.334V40.4615C144.334 39.7871 144.509 39.0378 144.984 38.4134C145.209 38.1387 145.433 37.8889 145.733 37.7141C146.158 37.4144 146.682 37.2395 147.332 37.2395Z" fill="#090A0E"/>
<path d="M130.704 36.3654C129.605 35.3413 128.056 34.8418 126.508 34.8418C124.709 34.8418 123.186 35.4662 121.912 36.74C121.562 37.0897 121.262 37.4394 121.013 37.839C120.963 37.9139 120.913 38.0138 120.863 38.0887C120.288 39.0628 120.014 40.1868 120.014 41.4106C120.014 43.2339 120.638 44.8074 121.912 46.0812C123.186 47.355 124.709 47.9794 126.508 47.9794C128.081 47.9794 129.63 47.4799 130.704 46.4309V47.6547H133.301V35.1665H130.704V36.3654ZM129.53 44.3828C128.755 45.1571 127.781 45.5317 126.632 45.5317C125.484 45.5317 124.509 45.1571 123.735 44.3828C122.961 43.5836 122.586 42.6095 122.586 41.4356C122.586 40.2617 122.961 39.2876 123.735 38.5133C124.509 37.7141 125.484 37.3394 126.632 37.3394C127.781 37.3394 128.755 37.7141 129.53 38.5133C130.304 39.2876 130.679 40.2617 130.679 41.4356C130.679 42.6095 130.304 43.5836 129.53 44.3828Z" fill="#090A0E"/>
<path d="M16.7521 28.7771C16.2665 29.4392 15.9375 30.5071 15.9375 32.0312V33.9971C15.9375 34.6357 16.1549 35.2553 16.5538 35.754L18.4675 38.1461C18.5596 38.1322 18.654 38.125 18.75 38.125C19.7855 38.125 20.625 38.9645 20.625 40C20.625 41.0355 19.7855 41.875 18.75 41.875C17.7145 41.875 16.875 41.0355 16.875 40C16.875 39.7591 16.9204 39.5288 17.0032 39.3172L15.0897 36.9253C14.4248 36.0942 14.0625 35.0615 14.0625 33.9971V32.0312C14.0625 30.2741 14.4366 28.7639 15.2401 27.6683C16.0708 26.5354 17.2961 25.9375 18.75 25.9375C21.1018 25.9375 23.1146 27.3802 23.9553 29.4272C26.0944 30.0556 27.6562 32.0321 27.6562 34.375C27.6562 34.8485 27.6465 35.3542 27.5075 35.8574C28.99 36.6445 30 38.2035 30 40C30 41.7965 28.9899 43.3556 27.5074 44.1426C27.6464 44.6458 27.6561 45.1514 27.6561 45.6248C27.6561 47.9677 26.0943 49.9442 23.9551 50.5726C23.1145 52.6196 21.1017 54.0623 18.7498 54.0623C18.1375 54.0623 17.5462 53.9641 16.9919 53.7819L17.5775 52.0007C17.9451 52.1216 18.3389 52.1873 18.7498 52.1873C20.4467 52.1873 21.8826 51.0596 22.3443 49.5106L22.5094 48.9565L23.0787 48.8553C24.6147 48.5825 25.7811 47.2389 25.7811 45.6248C25.7811 44.8098 25.7179 44.5117 25.4913 44.2363C25.1816 43.86 24.7641 43.719 24.3109 43.7674C23.836 43.818 23.3417 44.081 23.0047 44.5023L21.903 45.8795C21.9858 46.0911 22.0312 46.3215 22.0312 46.5625C22.0312 47.598 21.1918 48.4375 20.1562 48.4375C19.1207 48.4375 18.2812 47.598 18.2812 46.5625C18.2812 45.527 19.1207 44.6875 20.1562 44.6875C20.2522 44.6875 20.3464 44.6947 20.4385 44.7086L21.5406 43.331C22.1814 42.53 23.1262 42.0081 24.112 41.9029C24.9208 41.8166 25.7665 42.0137 26.4591 42.5692C27.4411 42.1303 28.125 41.1441 28.125 40C28.125 38.8558 27.4411 37.8697 26.459 37.4307C25.7664 37.9862 24.9207 38.1832 24.112 38.0969C23.1262 37.9916 22.1815 37.4698 21.5407 36.6688L20.4388 35.2914C20.3466 35.3053 20.2523 35.3125 20.1562 35.3125C19.1207 35.3125 18.2812 34.473 18.2812 33.4375C18.2812 32.402 19.1207 31.5625 20.1562 31.5625C21.1918 31.5625 22.0312 32.402 22.0312 33.4375C22.0312 33.6784 21.9858 33.9087 21.9031 34.1203L23.0048 35.4975C23.3419 35.9188 23.8361 36.1818 24.311 36.2325C24.7641 36.2808 25.1817 36.1399 25.4913 35.7636C25.7181 35.4882 25.7812 35.1901 25.7812 34.375C25.7812 32.7609 24.6149 31.4174 23.0789 31.1445L22.5096 31.0434L22.3444 30.4892C21.8828 28.9403 20.4469 27.8125 18.75 27.8125C17.8601 27.8125 17.2104 28.1521 16.7521 28.7771Z" fill="#090A0E"/>
<path d="M8.09694 45.8797C8.01418 46.0913 7.96875 46.3216 7.96875 46.5625C7.96875 47.598 8.80822 48.4375 9.84375 48.4375C10.8793 48.4375 11.7188 47.598 11.7188 46.5625C11.7188 45.527 10.8793 44.6875 9.84375 44.6875C9.74773 44.6875 9.65339 44.6947 9.56125 44.7086L8.45928 43.3312C7.81852 42.5302 6.87379 42.0084 5.88804 41.9031C5.07926 41.8168 4.2336 42.0138 3.54098 42.5693C2.55888 42.1303 1.875 41.1442 1.875 40C1.875 38.8559 2.55885 37.8697 3.54093 37.4308C4.23353 37.9863 5.07922 38.1834 5.88802 38.0971C6.87383 37.9919 7.81863 37.47 8.45943 36.669L9.56151 35.2914C9.65357 35.3053 9.74782 35.3125 9.84375 35.3125C10.8793 35.3125 11.7188 34.473 11.7188 33.4375C11.7188 32.402 10.8793 31.5625 9.84375 31.5625C8.80822 31.5625 7.96875 32.402 7.96875 33.4375C7.96875 33.6785 8.01422 33.9089 8.09704 34.1205L6.9953 35.4977C6.65827 35.919 6.164 36.182 5.68908 36.2326C5.23594 36.281 4.81836 36.14 4.50872 35.7637C4.28209 35.4883 4.2189 35.1902 4.2189 34.3752C4.2189 32.7611 5.38525 31.4175 6.92127 31.1447L7.49057 31.0435L7.65573 30.4894C8.11739 28.9404 9.55329 27.8127 11.2502 27.8127C11.6611 27.8127 12.0549 27.8784 12.4225 27.9993L13.0081 26.2181C12.4538 26.0359 11.8625 25.9377 11.2502 25.9377C8.89832 25.9377 6.88554 27.3804 6.04488 29.4274C3.90571 30.0558 2.3439 32.0323 2.3439 34.3752C2.3439 34.8486 2.35364 35.3542 2.49259 35.8574C1.01005 36.6444 0 38.2035 0 40C0 41.7965 1.01001 43.3555 2.4925 44.1426C2.35349 44.6458 2.34375 45.1515 2.34375 45.625C2.34375 47.9679 3.90556 49.9444 6.04472 50.5728C6.88539 52.6198 8.89818 54.0625 11.25 54.0625C12.7039 54.0625 13.9292 53.4646 14.7599 52.3317C15.5634 51.2361 15.9375 49.7259 15.9375 47.9688V46.0029C15.9375 44.9385 15.5752 43.9058 14.9103 43.0747L12.9968 40.6828C13.0796 40.4712 13.125 40.2409 13.125 40C13.125 38.9645 12.2855 38.125 11.25 38.125C10.2145 38.125 9.375 38.9645 9.375 40C9.375 41.0355 10.2145 41.875 11.25 41.875C11.346 41.875 11.4404 41.8678 11.5325 41.8539L13.4462 44.246C13.8451 44.7447 14.0625 45.3643 14.0625 46.0029V47.9688C14.0625 49.4928 13.7335 50.5608 13.2479 51.2229C12.7896 51.8479 12.1399 52.1875 11.25 52.1875C9.55314 52.1875 8.11724 51.0597 7.65558 49.5108L7.49042 48.9566L6.92111 48.8555C5.3851 48.5826 4.21875 47.2391 4.21875 45.625C4.21875 44.8099 4.28194 44.5118 4.50865 44.2364C4.81832 43.8601 5.23589 43.7192 5.68901 43.7675C6.1639 43.8182 6.65814 44.0812 6.99515 44.5025L8.09694 45.8797Z" fill="#090A0E"/>
</svg>
