<svg width="90" height="64" viewBox="0 0 90 64" fill="none" xmlns="http://www.w3.org/2000/svg">
<path d="M64.5218 24.0266H62.4453V38.1375H64.5218V24.0266Z" fill="black"/>
<path d="M68.0355 35.5889C67.2585 35.5889 66.6328 36.214 66.6328 36.9903C66.6328 37.7666 67.2585 38.3918 68.0355 38.3918C68.8124 38.3918 69.4381 37.7666 69.4381 36.9903C69.4381 36.214 68.8124 35.5889 68.0355 35.5889Z" fill="black"/>
<path d="M73.4948 33.2254C73.4948 31.5423 74.5055 30.0996 76.4651 30.0996H77.7027V28.1348H76.4651C74.9318 28.1348 74.2305 28.6225 73.5154 29.4332L73.5016 29.4538V28.1348H71.4458V38.1306H73.4948C73.4948 38.1237 73.4948 33.9055 73.4948 33.2254Z" fill="black"/>
<path d="M60.1898 28.1348H58.1133V38.1306H60.1898V28.1348Z" fill="black"/>
<path d="M59.1517 26.4792C59.9286 26.4792 60.5543 25.854 60.5543 25.0777C60.5543 24.3014 59.9217 23.6763 59.1517 23.6763C58.3747 23.6763 57.749 24.3014 57.749 25.0777C57.749 25.854 58.3816 26.4792 59.1517 26.4792Z" fill="black"/>
<path d="M53.8231 29.1447C53.0255 28.334 51.8016 27.8806 50.5846 27.8806C47.6831 27.8806 45.3247 30.237 45.3247 33.1361C45.3247 36.0353 47.6831 38.3917 50.5846 38.3917C51.8016 38.3917 53.0874 37.8695 53.8231 37.0451V38.1375H55.8652V28.1348H53.8231V29.1447ZM50.6534 36.3032C48.8657 36.3032 47.5043 34.9292 47.5043 33.1361C47.5043 31.3431 48.8657 29.9828 50.6534 29.9828C52.4411 29.9828 53.8506 31.2606 53.8506 33.1361C53.8506 35.0116 52.4411 36.3032 50.6534 36.3032Z" fill="black"/>
<path d="M83.4505 38.3916C84.3787 38.3916 85.5613 37.8901 86.3039 37.0382C86.3108 37.4161 86.3039 37.7596 86.3039 38.1306H88.346V33.7681V28.1348H86.297V33.6239C86.297 35.0459 85.2107 36.3719 83.5811 36.3719C82.1578 36.3719 81.1471 35.3414 81.1471 33.8643V28.1416H79.0981V34.0361C79.105 36.6741 80.5283 38.3916 83.4505 38.3916Z" fill="black"/>
<path d="M39.3291 27.8806C37.9677 27.8806 36.6338 28.4989 35.8225 29.4744C35.0799 28.492 34.0004 27.8806 32.5496 27.8806C31.367 27.8806 30.5213 28.4096 30.0675 28.8355V28.1348H28.0254V38.1306H30.0675V32.2843C30.0675 30.979 31.1332 29.921 32.4327 29.921C33.7322 29.921 34.798 30.9858 34.798 32.2843V38.1306H36.8401V32.2843C36.8401 30.979 37.9058 29.921 39.2053 29.921C40.5048 29.921 41.5706 30.9858 41.5706 32.2843V38.1306H43.6127V32.2843C43.6264 29.605 41.8868 27.8806 39.3291 27.8806Z" fill="black"/>
<path d="M66.2957 42.7543L66.282 42.768V41.9917H65.6838H65.0787H64.9756V47.8586H65.0787H66.282C66.282 47.8518 66.282 45.5091 66.282 45.1107C66.282 44.1214 66.8733 43.2764 68.0215 43.2764H68.7435V41.9917H68.0215C67.1277 41.9917 66.7151 42.2802 66.2957 42.7543Z" fill="black"/>
<path d="M80.3428 45.2068C80.3428 46.148 79.5864 46.7113 78.8507 46.7113C78.0738 46.7113 77.5237 46.148 77.5237 45.3442V41.9985H76.2104V45.4404C76.2104 47.0686 77.1455 48.0098 78.7682 48.0098C79.2976 48.0098 79.9233 47.7418 80.3359 47.3365C80.3359 47.4395 80.3359 47.5426 80.3359 47.6456V47.8655H81.6423V41.9985H80.329L80.3428 45.2068Z" fill="black"/>
<path d="M72.1467 41.8474C70.4484 41.8474 69.0664 43.2283 69.0664 44.9252C69.0664 46.622 70.4484 48.0029 72.1467 48.0029C73.845 48.0029 75.227 46.622 75.227 44.9252C75.227 43.2283 73.8519 41.8474 72.1467 41.8474ZM72.1467 46.6976C71.1704 46.6976 70.3728 45.9007 70.3728 44.9252C70.3728 43.9496 71.1704 43.1527 72.1467 43.1527C73.1231 43.1527 73.9207 43.9496 73.9207 44.9252C73.9207 45.9007 73.13 46.6976 72.1467 46.6976Z" fill="black"/>
<path d="M86.0496 41.8474C85.3758 41.8474 84.7226 42.081 84.262 42.4794V41.9917H82.9556V49.8784H84.262V47.3365C84.702 47.7487 85.3827 48.0098 86.0496 48.0098C87.7479 48.0098 89.13 46.6289 89.13 44.932C89.13 43.2283 87.7479 41.8474 86.0496 41.8474ZM86.0084 46.6701C84.9839 46.6701 84.2413 45.935 84.2413 44.9252C84.2413 43.9153 84.9839 43.1871 86.0084 43.1871C86.9985 43.1871 87.7479 43.9359 87.7479 44.9252C87.7479 45.9213 86.9985 46.6701 86.0084 46.6701Z" fill="black"/>
<path d="M62.3695 42.4794C61.9088 42.081 61.2556 41.8474 60.5818 41.8474C58.8835 41.8474 57.5015 43.2283 57.5015 44.9252C57.5015 46.622 58.8835 48.0029 60.5818 48.0029C61.2487 48.0029 61.9294 47.7418 62.3695 47.3296V47.4464C62.3488 48.6487 61.7644 49.2601 60.623 49.2601H60.6093C59.963 49.2601 59.3923 49.0128 58.8629 48.4975L58.8147 48.4494L57.8659 49.3563L57.9071 49.4044C58.3953 49.9746 59.3854 50.6272 60.5749 50.6272C60.5955 50.6272 60.6162 50.6272 60.6368 50.6272C61.7507 50.6066 63.6209 50.1738 63.6759 47.4945V41.9848H62.3695V42.4794ZM60.623 46.6701C59.6329 46.6701 58.8835 45.9213 58.8835 44.9252C58.8835 43.9359 59.6329 43.1871 60.623 43.1871C61.6475 43.1871 62.3901 43.9153 62.3901 44.9252C62.3832 45.935 61.6475 46.6701 60.623 46.6701Z" fill="black"/>
<path d="M14.274 32.9576C14.274 34.7781 12.7957 36.2552 10.9737 36.2552C9.15159 36.2552 7.67331 34.7781 7.67331 32.9576C7.67331 31.1371 9.15159 29.66 10.9737 29.66C12.7957 29.66 14.274 31.1439 14.274 32.9576ZM10.9737 22C4.92302 22 0 26.9189 0 32.9645C0 39.01 4.92302 43.9221 10.9737 43.9221C13.1876 43.9221 15.326 43.2625 17.1549 42.0122L17.1893 41.9916L15.711 40.2741L15.6835 40.2878C14.274 41.1878 12.6513 41.6687 10.9737 41.6687C6.16752 41.6687 2.25524 37.7597 2.25524 32.9576C2.25524 28.1555 6.16752 24.2465 10.9737 24.2465C15.7798 24.2465 19.6921 28.1555 19.6921 32.9576C19.6921 33.5828 19.6233 34.2079 19.4858 34.8331C19.2108 35.9666 18.4201 36.3101 17.8219 36.262C17.2237 36.214 16.5224 35.788 16.5155 34.7438V32.9576C16.5155 29.9005 14.0265 27.4135 10.9668 27.4135C7.90708 27.4135 5.41807 29.9005 5.41807 32.9576C5.41807 36.0147 7.90708 38.5017 10.9668 38.5017C12.4519 38.5017 13.8477 37.9177 14.8997 36.8666C15.5116 37.8147 16.5086 38.4123 17.6431 38.5017C17.7394 38.5085 17.8425 38.5154 17.9388 38.5154C18.7363 38.5154 19.5271 38.2475 20.1665 37.7666C20.8266 37.2651 21.3147 36.5437 21.5829 35.6781C21.6241 35.5407 21.7067 35.2178 21.7067 35.2178V35.2041C21.8648 34.5102 21.9404 33.8163 21.9404 32.9576C21.9473 26.9189 17.0243 22 10.9737 22Z" fill="black"/>
</svg>
