<svg width="88" height="64" viewBox="0 0 88 64" fill="none" xmlns="http://www.w3.org/2000/svg">
<rect width="88" height="64" fill="#C4DD1F"/>
<path fill-rule="evenodd" clip-rule="evenodd" d="M33.6474 37.6717C30.8271 39.7316 27.0536 40 25.5199 40C14.8575 40 13 33.8215 13 30.1864H18.8579C18.8579 31.8426 19.7461 34.9515 25.0768 34.9515C27.9855 34.9515 31.2201 34.2252 31.2201 31.1535C31.2201 28.853 28.9963 28.2874 25.8863 27.5195L19.99 26.0678C15.831 25.0592 13.4431 22.5904 13.4431 18.149C13.4431 14.9176 15.2249 9.14282 24.7179 9.14282C29.1017 9.14282 31.9135 10.5519 33.6474 12.4147V9.90861H39.3455V25.7451L46.5294 17.5015H53.5194L45.8861 25.9038L53.7239 39.2342H46.8947L41.7206 29.9031L39.3455 32.3645L39.3391 39.2342H33.6474V37.6717ZM22.2544 20.7734L29.3999 22.5126C30.9272 22.8971 32.4002 23.3711 33.6474 24.0996V18.6326H30.2466C30.088 17.3012 29.6012 14.1902 24.2705 14.1902C21.9274 14.1902 19.1401 15.0795 19.1401 17.7049C19.1401 20.0044 21.0381 20.4911 22.2544 20.7734Z" fill="#65656D"/>
<path d="M14.8353 53.6695C15.0354 53.7495 15.4888 53.8829 15.9956 53.8829C17.5293 53.8829 18.2761 53.136 19.1563 51.2022L22.3571 44.2139H20.1299L18.0227 49.2151L15.8756 44.2139H13.5684L16.3557 50.082C16.5424 50.4687 16.7958 50.8955 16.7958 51.3089C16.7958 51.7357 16.4757 52.1225 15.8356 52.1225C15.4488 52.1225 15.0887 52.0158 14.8353 51.9091V53.6695Z" fill="#65656D"/>
<path d="M26.7734 49.6819C26.48 49.7619 25.6531 49.8819 25.1996 49.8819C24.3594 49.8819 24.1461 49.5352 24.1461 48.5349V46.8279H22.2656V48.9217C22.2656 50.3887 23.0525 51.3089 24.5728 51.3089C25.4397 51.3089 26.3999 51.0956 26.7734 51.0022V53.7095H28.6538V46.8279H26.7734V49.6819Z" fill="#65656D"/>
<path d="M36.5119 53.7095C36.2585 53.1227 36.2718 52.4692 36.2718 51.8424V48.8684C36.2718 46.9479 34.6581 46.6278 33.2711 46.6278C31.284 46.6278 30.1904 47.4147 30.0837 48.9484H31.8575C31.9908 48.1615 32.3509 47.8948 33.2178 47.8948C34.058 47.8948 34.4581 48.1882 34.4581 48.815C34.4581 49.3751 34.0046 49.4818 32.7777 49.6419C31.4174 49.8152 29.777 50.0286 29.777 51.8291C29.777 53.1227 30.7105 53.9095 32.2309 53.9095C33.0578 53.9095 33.8713 53.6295 34.4581 53.0427C34.4848 53.3494 34.4981 53.4561 34.5914 53.7095H36.5119ZM34.4447 50.362V51.1356C34.4447 52.1225 33.7512 52.6693 32.7644 52.6693C32.1109 52.6693 31.7241 52.3225 31.7241 51.749C31.7241 50.9088 32.4576 50.8288 33.1111 50.7221C33.5912 50.6421 34.0046 50.6154 34.4447 50.362Z" fill="#65656D"/>
<path d="M44.33 51.0555H42.5029C42.3562 51.9624 41.8494 52.4425 41.0359 52.4425C40.0223 52.4425 39.4355 51.6557 39.4355 50.282C39.4355 48.8684 40.049 48.0415 41.0759 48.0415C41.8094 48.0415 42.3029 48.4683 42.4362 49.2284H44.29C44.13 47.6281 42.903 46.6278 41.0626 46.6278C38.9287 46.6278 37.5284 48.0948 37.5284 50.322C37.5284 52.4692 38.9154 53.8829 41.0359 53.8829C42.863 53.8829 44.0899 52.8426 44.33 51.0555Z" fill="#65656D"/>
<path d="M51.0201 48.2816V46.8279H44.6053V48.2816H46.8725V53.7095H48.7529V48.2816H51.0201Z" fill="#65656D"/>
<path d="M58.3018 53.7095V46.8279H56.4214V49.3218H53.7674V46.8279H51.887V53.7095H53.7674V50.8155H56.4214V53.7095H58.3018Z" fill="#65656D"/>
<path d="M66.2074 53.7095V46.8279H64.0602L61.6063 51.4823V46.8279H59.7925V53.7095H61.9397L64.3936 49.0551V53.7095H66.2074Z" fill="#65656D"/>
<path d="M74.6997 53.7095L71.659 49.4952L74.3263 46.8279H72.0991L69.5785 49.5485V46.8279H67.7247V53.7095H69.5785V51.6023L70.4187 50.7488L72.4058 53.7095H74.6997Z" fill="#65656D"/>
</svg>
