<svg width="16" height="16" viewBox="0 0 16 16" fill="none" xmlns="http://www.w3.org/2000/svg">
<path fill-rule="evenodd" clip-rule="evenodd" d="M7.84142 11.7986L10.8401 14.014C11.3919 14.3185 11.7902 14.1609 11.9277 13.5017L13.8962 4.22536C14.0977 3.41734 13.5881 3.05086 13.0602 3.29054L1.50122 7.74765C0.712211 8.06412 0.71681 8.5043 1.3574 8.70045L4.3237 9.62627L5.34375 12.983C5.37278 13.0632 5.39243 13.1329 5.40934 13.1929C5.47047 13.4096 5.4959 13.4998 5.7995 13.5C5.83045 13.5 5.85962 13.4986 5.88724 13.4958C6.12029 13.4725 6.24199 13.354 6.38607 13.2137L7.84142 11.7986ZM4.90471 9.25972L11.191 5.29377C11.5152 5.09718 11.8127 5.20288 11.5685 5.41961L6.00412 10.4411L5.87113 12.4268L4.90471 9.25972Z" fill="#BDBEC1"/>
</svg>
