<svg width="16" height="16" viewBox="0 0 16 16" fill="none" xmlns="http://www.w3.org/2000/svg">
<path fill-rule="evenodd" clip-rule="evenodd" d="M13.6709 7.28091C13.8799 6.99711 14.0449 6.76978 14.1674 6.59818C15.0481 5.36617 15.4294 4.5793 15.3128 4.2361L15.2666 4.15543C15.2366 4.10777 15.1574 4.06303 15.0305 4.02343C14.9029 3.9831 14.7401 3.9765 14.5414 4.0029L12.3421 4.01903C12.2915 4.0139 12.2402 4.01537 12.1896 4.02343C12.1382 4.0315 12.1052 4.03957 12.0898 4.0469C12.0752 4.0557 12.0627 4.0623 12.0517 4.06743L12.0216 4.09163C11.996 4.10703 11.9681 4.13563 11.938 4.17597C11.9065 4.21557 11.8816 4.2625 11.861 4.31677C11.622 4.9643 11.3492 5.56711 11.0441 6.12371C10.8556 6.45591 10.6826 6.74411 10.5249 6.98758C10.3672 7.23178 10.2345 7.41071 10.1274 7.52585C10.0211 7.64098 9.92429 7.73338 9.83776 7.80305C9.75049 7.87272 9.68449 7.90205 9.63902 7.89178C9.59356 7.88078 9.54956 7.87052 9.50922 7.85878C9.43809 7.81112 9.38089 7.74585 9.33762 7.66225C9.29362 7.58012 9.26502 7.47525 9.24962 7.34911C9.23422 7.22371 9.22542 7.11445 9.22249 7.02351C9.22029 6.93258 9.22176 6.80425 9.22689 6.63778C9.23202 6.47204 9.23422 6.35984 9.23422 6.30044C9.23422 6.09731 9.23789 5.87584 9.24596 5.63751C9.25329 5.39991 9.25989 5.21071 9.26502 5.07137C9.27016 4.93277 9.27236 4.78464 9.27236 4.6299C9.27236 4.47444 9.26356 4.3527 9.24596 4.26397C9.22762 4.17597 9.20122 4.09017 9.16529 4.0073C9.12936 3.92443 9.07729 3.8599 9.00909 3.81443C8.94016 3.76897 8.85435 3.7323 8.75315 3.7059C8.48329 3.64137 8.13935 3.6069 7.72208 3.60103C6.77535 3.59077 6.16668 3.6553 5.89754 3.7939C5.79048 3.8533 5.69368 3.93397 5.60714 4.03517C5.51548 4.15323 5.50228 4.21777 5.56828 4.22804C5.87481 4.27644 6.09041 4.39157 6.21801 4.57344L6.26348 4.6695C6.29941 4.7399 6.33461 4.8631 6.37055 5.03984C6.40575 5.21584 6.42921 5.41164 6.43948 5.62577C6.46515 6.01738 6.46515 6.35178 6.43948 6.63044C6.41381 6.90838 6.39035 7.12545 6.36688 7.28091C6.34341 7.43565 6.30968 7.56178 6.26421 7.65785C6.21801 7.75538 6.18721 7.81405 6.17181 7.83532C6.15641 7.85658 6.14394 7.86978 6.13368 7.87565C6.06768 7.90205 5.99874 7.91525 5.92761 7.91525C5.85648 7.91525 5.76994 7.87785 5.66801 7.80232C5.56608 7.72825 5.46048 7.62485 5.35121 7.49358C5.24194 7.36231 5.11801 7.17898 4.98087 6.94285C4.84374 6.70745 4.70074 6.42878 4.55334 6.10758L4.43087 5.87438C4.35534 5.72477 4.25047 5.50697 4.11847 5.22024C3.98574 4.9335 3.8684 4.6563 3.7672 4.38864C3.72614 4.27644 3.66453 4.19064 3.58387 4.13123L3.545 4.10703C3.52007 4.08577 3.479 4.06303 3.42327 4.03957C3.36753 4.01463 3.30887 3.99777 3.24727 3.98677L1.15506 4.0029C0.940924 4.0029 0.796457 4.05423 0.719457 4.15543L0.68939 4.20384C0.67399 4.23097 0.666656 4.2735 0.666656 4.33217C0.666656 4.39157 0.682057 4.46344 0.712857 4.54924C1.01792 5.30457 1.35013 6.03278 1.70873 6.73458C2.06806 7.43565 2.37973 8.00105 2.64446 8.42932C2.9092 8.85832 3.17833 9.26239 3.45407 9.64299C3.72907 10.0236 3.91094 10.2663 3.99967 10.3734C4.08914 10.4812 4.1588 10.5611 4.2094 10.6147L4.4008 10.8083C4.52254 10.9366 4.70221 11.0906 4.93907 11.2695C5.17521 11.4492 5.43774 11.6259 5.72594 11.7997C6.01268 11.9743 6.34781 12.1158 6.72988 12.2258C7.11122 12.3358 7.48302 12.3798 7.84455 12.3585H8.72235C8.90129 12.3424 9.03622 12.2837 9.12716 12.1818L9.15796 12.1415C9.17849 12.1099 9.19756 12.0601 9.21516 11.9933C9.23276 11.9259 9.24229 11.8525 9.24229 11.7726C9.23716 11.5423 9.25329 11.3341 9.29142 11.1493C9.33029 10.9645 9.37282 10.8259 9.42122 10.7313C9.46962 10.6381 9.52462 10.5589 9.58622 10.4944C9.64709 10.4299 9.68963 10.3917 9.71603 10.3785C9.74096 10.3653 9.76149 10.3558 9.77689 10.3499C9.89863 10.3074 10.0424 10.3485 10.2081 10.4746C10.3738 10.6007 10.5293 10.7555 10.6738 10.9403C10.819 11.1258 10.9935 11.3326 11.1974 11.5629C11.4005 11.7939 11.5787 11.9647 11.7312 12.0777L11.8845 12.1737C11.9857 12.2383 12.1184 12.2969 12.282 12.3505C12.444 12.404 12.587 12.4179 12.7095 12.3908L14.6646 12.3585C14.8574 12.3585 15.0078 12.3248 15.1148 12.2581C15.2212 12.1913 15.285 12.1173 15.3055 12.0373C15.326 11.9567 15.3268 11.8665 15.3092 11.7638C15.2916 11.6626 15.2732 11.5915 15.2564 11.5519C15.238 11.5115 15.2212 11.4778 15.2058 11.4507C14.952 10.9696 14.4651 10.3771 13.7472 9.67599L13.7318 9.65986L13.7244 9.65106L13.7171 9.64372H13.709C13.3834 9.31666 13.1774 9.09739 13.0908 8.98445C12.9332 8.77105 12.8972 8.55325 12.9845 8.33398C13.0446 8.16752 13.2734 7.81625 13.6709 7.28091" fill="#BDBEC1"/>
</svg>
