<svg width="24" height="24" viewBox="0 0 24 24" fill="none" xmlns="http://www.w3.org/2000/svg">
<g clip-path="url(#clip0)">
<path fill-rule="evenodd" clip-rule="evenodd" d="M21.75 4.5C22.9926 4.5 24 3.49265 24 2.25C24 1.00735 22.9926 0 21.75 0C20.5074 0 19.5 1.00735 19.5 2.25C19.5 2.59735 19.5786 2.92621 19.7192 3.21991L15.6791 7.26004C14.6631 6.47031 13.3865 6 12 6C10.6135 6 9.33692 6.47031 8.32086 7.26013L5.78064 4.72009C5.92127 4.42639 6 4.09735 6 3.75C6 2.50735 4.99255 1.5 3.75 1.5C2.50745 1.5 1.5 2.50735 1.5 3.75C1.5 4.99265 2.50745 6 3.75 6C4.09735 6 4.42639 5.92126 4.72009 5.78073L7.26013 8.32077C6.4704 9.33673 6 10.6134 6 12C6 13.0814 6.28619 14.0961 6.78681 14.9724L4.24713 16.877C3.89008 16.6388 3.46124 16.5 3 16.5C1.75745 16.5 0.75 17.5074 0.75 18.75C0.75 19.9926 1.75745 21 3 21C4.24255 21 5.25 19.9926 5.25 18.75C5.25 18.5154 5.21411 18.2893 5.14746 18.0767L7.6875 16.1717C8.77826 17.2991 10.3074 18 12 18C12.6324 18 13.242 17.9021 13.8144 17.7208L14.9301 20.1382C14.5106 20.5469 14.25 21.1181 14.25 21.75C14.25 22.9926 15.2574 24 16.5 24C17.7426 24 18.75 22.9926 18.75 21.75C18.75 20.5074 17.7426 19.5 16.5 19.5C16.4299 19.5 16.3605 19.5032 16.292 19.5095L15.176 17.0914C15.9509 16.6071 16.6071 15.9508 17.0914 15.176L19.5095 16.292C19.5033 16.3605 19.5 16.4299 19.5 16.5C19.5 17.7426 20.5074 18.75 21.75 18.75C22.9926 18.75 24 17.7426 24 16.5C24 15.2574 22.9926 14.25 21.75 14.25C21.1181 14.25 20.547 14.5106 20.1383 14.9301L17.7208 13.8143C17.9022 13.2419 18 12.6324 18 12C18 10.6134 17.5296 9.33682 16.7399 8.32077L20.7799 4.28064C21.0736 4.42126 21.4027 4.5 21.75 4.5Z" fill="white"/>
</g>
<defs>
<clipPath id="clip0">
<path d="M0 0L24 0L24 24L0 24L0 0Z" fill="white"/>
</clipPath>
</defs>
</svg>
