<svg width="16" height="16" viewBox="0 0 16 16" fill="none" xmlns="http://www.w3.org/2000/svg">
<path fill-rule="evenodd" clip-rule="evenodd" d="M6.77777 10.14V5.8622L10.4444 8.00108L6.77777 10.14ZM15.1867 5.05771C15.1867 5.05771 15.0437 4.04077 14.6037 3.59307C14.0463 3.00529 13.4208 2.99639 13.1341 2.96155C11.0822 2.81257 8.00292 2.80664 8.00292 2.80664H7.99706C7.99706 2.80664 4.91852 2.81257 2.86592 2.96155C2.57919 2.99639 1.95439 3.00232 1.39632 3.59011C0.956323 4.0378 0.813323 5.05549 0.813323 5.05549C0.813323 5.05549 0.666656 6.25107 0.666656 7.44517V8.56441C0.666656 9.75851 0.813323 10.9526 0.813323 10.9526C0.813323 10.9526 0.956323 11.9696 1.39632 12.4173C1.95439 13.0043 2.68699 12.9858 3.01332 13.0473C4.18666 13.1607 7.99999 13.1955 7.99999 13.1955C7.99999 13.1955 11.0822 13.1911 13.1341 13.0421C13.4208 13.0073 14.0463 13.0043 14.6037 12.4173C15.0437 11.9696 15.1867 10.9526 15.1867 10.9526C15.1867 10.9526 15.3333 9.75851 15.3333 8.56441V7.44517C15.3333 6.25107 15.1867 5.05771 15.1867 5.05771Z" fill="#BDBEC1"/>
</svg>
